# xmcd CD database file
#
# Track frame offsets:
#	150
#	5510
#	54340
#	70345
#	125122
#	135785
#	182369
#	193735
#	234803
#	254052
#	306873
#	315912
#
# Disc length: 4722 seconds
#
# Revision: 0
# Processed by: cddbd v1.5.2PL0 Copyright (c) Steve Scherf et al.
# Submitted via: CDex 1.51
#
DISCID=9a12700c
DTITLE=Jeff Bujak - Peaces of Man and Machine
DYEAR=2006
DGENRE=Jazz
TTITLE0=1
TTITLE1=Cake
TTITLE2=Channelise
TTITLE3=Puzzle
TTITLE4=Intrinsic
TTITLE5=Gemini
TTITLE6=Agitate
TTITLE7=Veil
TTITLE8=Persuaders
TTITLE9=Bonfire
TTITLE10=Cycle
TTITLE11=Duodenary
EXTD=YEAR: 2006
EXTT0=
EXTT1=
EXTT2=
EXTT3=
EXTT4=
EXTT5=
EXTT6=
EXTT7=
EXTT8=
EXTT9=
EXTT10=
EXTT11=
PLAYORDER=
